PathFileType	4	(X/Y/Z)	C:/Users/opensim2020/Desktop/walking_exp_matlab/subject02_walking06_straight_01.trc	
DataRate	CameraRate	NumFrames	NumMarkers	Units	OrigDataRate	OrigDataStartFrame	OrigNumFrames	
100.00	100.00	9	41	mm	100.00	908	205	
Frame#	Time	LFHD			RFHD			LBHD			RBHD			C7			T10			CLAV			STRN			RBAK			LSHO			LUPA			LELB			LFRM			LWRA			LWRB			LFIN			RSHO			RUPA			RELB			RFRM			RWRA			RWRB			RFIN			LASI			RASI			LPSI			RPSI			LTHI			LKNE			LTIB			LANK			LHEE			LTOE			RTHI			RKNE			RTIB			RANK			RHEE			RTOE			*39			*40			
		X1	Y1	Z1	X2	Y2	Z2	X3	Y3	Z3	X4	Y4	Z4	X5	Y5	Z5	X6	Y6	Z6	X7	Y7	Z7	X8	Y8	Z8	X9	Y9	Z9	X10	Y10	Z10	X11	Y11	Z11	X12	Y12	Z12	X13	Y13	Z13	X14	Y14	Z14	X15	Y15	Z15	X16	Y16	Z16	X17	Y17	Z17	X18	Y18	Z18	X19	Y19	Z19	X20	Y20	Z20	X21	Y21	Z21	X22	Y22	Z22	X23	Y23	Z23	X24	Y24	Z24	X25	Y25	Z25	X26	Y26	Z26	X27	Y27	Z27	X28	Y28	Z28	X29	Y29	Z29	X30	Y30	Z30	X31	Y31	Z31	X32	Y32	Z32	X33	Y33	Z33	X34	Y34	Z34	X35	Y35	Z35	X36	Y36	Z36	X37	Y37	Z37	X38	Y38	Z38	X39	Y39	Z39	X40	Y40	Z40	X41	Y41	Z41	

154	1.530	1462.58423	373.85150	1746.70068	1604.85681	375.49225	1722.09143	1448.46045	260.56696	1648.21143	1588.46716	249.89851	1619.69592	1511.18359	222.30350	1511.54382	1514.66699	176.80553	1235.78857	1501.89795	363.09012	1449.81799	1505.41321	421.61255	1279.32874	1570.78149	171.45045	1335.44971	1331.86975	304.24219	1496.17810	1245.58862	317.91943	1297.51599	1232.42200	333.88589	1155.35254	1230.87976	378.08347	1028.57813	1278.42859	461.80167	926.73737	1240.66357	422.20923	913.92188	1242.63110	459.31982	859.84888	1698.33008	298.67648	1475.83594	1778.04761	261.29248	1285.63550	1790.19250	266.37244	1138.66846	1811.51453	285.75504	1021.05353	1796.67407	327.72641	891.32214	1824.99500	278.27344	891.68671	1829.93628	309.37531	825.72552	1374.08618	407.71844	972.11316	1623.30750	433.86728	979.33057	1466.82605	205.20836	1016.08582	1583.66418	210.66385	1021.24652	1315.86145	320.80478	659.13617	1328.49731	290.52768	474.84167	1338.44214	134.74765	372.59427	1375.15234	-8.47479	205.99545	1435.36169	-38.89608	205.48596	1342.30261	53.40996	63.31912	1700.97937	414.88113	679.14246	1659.83948	447.33591	472.03662	1671.06995	423.72064	284.49292	1635.74341	416.80695	91.67644	1583.59668	380.71658	38.76331	1642.97998	571.42480	39.77343	1552.84680	259.59415	1786.53271			 
155	1.540	1463.72681	383.62549	1748.52673	1605.97888	385.62497	1724.00354	1449.95911	270.27347	1650.06921	1590.29358	260.11322	1621.65125	1512.54968	232.36702	1513.31836	1516.86780	186.55914	1237.75378	1503.14783	372.88159	1451.57715	1506.77087	431.24979	1280.89551	1573.09180	181.38431	1337.50452	1333.09924	313.58261	1497.49426	1247.19861	325.35382	1298.47766	1234.88635	339.34198	1155.99243	1232.30383	380.38950	1028.04883	1279.28979	459.99515	922.92682	1240.88782	420.29373	912.15900	1243.19226	454.98730	856.14795	1699.71362	309.85043	1478.00232	1780.29736	273.33542	1287.70349	1792.61670	279.39923	1140.64026	1813.78796	299.92209	1023.19720	1798.72095	343.04483	893.90082	1827.30823	293.83087	893.84668	1832.42651	325.83453	828.52515	1374.65820	416.81146	974.38849	1624.76807	443.65222	980.00330	1469.62268	214.69792	1017.44995	1586.01990	220.38255	1023.21063	1316.70508	336.84348	661.07306	1330.04468	311.41086	476.62439	1342.43115	155.67488	375.88412	1379.16309	11.53230	209.69228	1439.97864	-18.28915	208.12119	1343.52966	74.54038	68.04271	1702.28491	421.91168	679.76062	1661.08740	451.07281	472.22672	1671.79211	426.40384	284.54953	1635.87061	416.89481	91.74244	1583.73596	380.66324	38.87839	1643.10339	571.41144	39.68861	1554.35522	269.51633	1788.26514			 
156	1.550	1464.69482	393.23633	1750.34546	1606.94470	395.63452	1725.93457	1451.22375	279.98975	1651.73645	1591.61035	270.21124	1623.43359	1514.19373	242.58273	1515.33398	1519.03040	196.26634	1239.73474	1504.26721	382.64529	1453.25879	1507.91211	440.77686	1282.38293	1575.86560	191.41110	1340.08240	1334.16040	322.98026	1498.68860	1248.85022	332.69397	1299.27002	1236.84033	344.55215	1156.55005	1233.12097	381.73334	1027.83057	1279.83972	458.24313	919.43036	1240.93738	418.14682	910.56110	1243.67627	450.54050	852.88501	1700.87354	320.96298	1480.08264	1782.28210	285.35818	1289.61194	1794.99683	292.48608	1142.63342	1816.17908	314.42456	1025.49646	1800.80737	358.69781	896.67621	1829.21948	309.34726	895.86658	1834.70288	342.46246	831.21497	1375.19482	425.46716	976.80902	1626.18262	453.35965	980.64191	1472.33984	224.04240	1018.88531	1588.28284	229.77303	1025.13977	1317.45776	353.29276	663.09033	1331.45984	332.23373	478.77841	1346.29590	176.66472	378.65176	1383.26794	32.91210	211.71483	1444.13062	2.63365	209.31909	1345.45764	96.60703	72.09446	1703.57629	428.75998	680.29205	1661.68030	453.93124	471.66470	1672.57654	428.98901	284.50104	1636.17102	417.26083	91.89046	1583.75024	380.56686	38.89959	1643.22400	571.37488	39.63872	1555.54297	279.35544	1790.03235			 
157	1.560	1465.42041	402.81509	1752.08228	1607.72559	405.60367	1727.83044	1452.51794	289.50342	1653.47083	1592.52527	280.12430	1625.07458	1515.69189	252.48979	1517.44116	1521.10999	205.80722	1241.66113	1505.31128	392.42346	1454.88684	1508.94067	450.25861	1283.76794	1578.41809	201.44189	1342.35059	1335.18079	332.38089	1499.80359	1250.41797	339.74622	1300.01489	1238.97559	349.57800	1157.20105	1234.40430	383.41443	1027.82068	1280.34668	456.11423	916.24622	1241.22766	416.43713	909.46613	1244.00964	446.16864	850.08795	1702.22058	332.36044	1482.29382	1784.20117	297.73447	1291.58154	1797.55273	305.77380	1144.81226	1818.35266	328.87967	1027.73499	1802.60876	374.41714	899.49677	1831.19153	325.19598	898.01385	1836.88159	359.42068	834.08496	1375.30457	434.32376	979.31726	1627.68372	462.89658	981.34540	1474.92688	233.29639	1020.44080	1590.43506	239.10515	1026.88000	1318.11707	370.09491	665.25153	1332.73132	352.59332	481.09604	1349.95190	197.43756	380.94705	1387.35425	54.35495	212.95078	1448.37073	24.24873	209.78140	1347.82922	120.14458	75.67222	1704.46277	434.68488	680.17609	1662.93518	457.00674	471.70178	1672.87732	430.76746	284.22528	1636.18176	417.38770	91.92478	1583.79187	380.48795	38.93182	1643.31750	571.34521	39.59986	1556.44702	289.09946	1791.82739			 
158	1.570	1466.02563	412.25305	1753.80823	1608.19495	415.39368	1729.59314	1453.49390	299.20132	1654.80127	1593.66431	290.11652	1626.73572	1517.04016	262.46582	1519.22705	1523.15894	215.32489	1243.57129	1506.20520	402.23535	1456.35242	1509.89954	459.79868	1285.14343	1580.64404	211.37143	1344.47620	1336.24280	341.68323	1500.96008	1252.01721	346.97159	1300.77014	1240.88953	354.42905	1157.86230	1235.37292	384.34946	1027.73669	1280.75427	454.18134	913.62689	1241.30054	414.43243	908.54340	1244.28174	441.66193	847.80188	1702.97424	343.30490	1484.32996	1786.48633	310.26843	1293.83057	1799.83093	318.97290	1146.92383	1820.13440	343.33353	1029.90198	1804.33179	390.35321	902.47437	1833.09827	341.29813	900.28522	1838.89905	376.59860	837.10724	1375.59753	442.73444	981.70276	1629.31616	472.29007	982.17847	1477.31592	242.50435	1022.11255	1592.35559	248.28731	1028.52527	1318.80994	387.11487	667.34875	1333.83545	372.45581	483.35480	1353.57715	217.91994	382.77621	1391.09656	76.05737	213.45824	1452.35962	46.62598	208.73962	1350.64441	144.90898	78.12129	1705.35938	440.44601	680.39111	1663.56189	459.39087	471.28717	1672.95471	431.45853	284.09604	1636.09180	417.44095	91.95560	1583.67297	380.32001	39.14350	1643.35254	571.34558	39.54989	1557.28406	298.85413	1793.45325			 
159	1.580	1466.45886	421.74216	1755.16284	1608.76770	425.43475	1731.45544	1454.41650	308.76837	1656.10425	1595.02954	300.26279	1628.43555	1518.34656	272.42545	1520.69238	1525.21606	224.78438	1245.39429	1507.00171	412.08966	1457.69019	1510.81677	469.29126	1286.35889	1583.21753	221.26428	1346.94653	1337.21326	350.95825	1501.81921	1253.10156	352.91345	1301.42651	1242.85522	359.31769	1158.56177	1236.48462	385.50491	1028.05334	1280.89600	452.74368	911.49524	1241.31201	412.47565	907.84332	1244.47278	437.32303	845.90845	1704.19312	354.47559	1486.63135	1788.22302	322.61618	1295.86597	1801.86084	332.01816	1148.93787	1822.00635	358.06674	1032.31433	1805.59644	406.16190	905.42444	1834.93091	357.56296	902.65143	1840.81714	394.01059	840.20300	1375.91113	451.31317	984.06079	1630.93164	481.50922	983.10681	1479.55005	251.58864	1023.84540	1594.21155	257.37567	1029.97791	1319.48914	403.87021	669.59174	1334.90186	391.70569	485.45663	1356.97644	238.20938	383.90506	1394.87170	99.28340	212.14893	1456.25647	69.62474	206.92899	1353.40845	170.78374	79.58115	1706.53564	445.97482	680.81909	1664.28125	461.58594	471.09283	1673.28760	431.75443	284.27527	1635.91150	417.47614	92.08338	1583.43555	380.46231	39.12367	1643.42224	571.36438	39.50615	1557.92468	308.48651	1794.96680			 
160	1.590	1466.74207	431.11850	1756.61230	1609.06262	435.30389	1733.13342	1454.96118	318.26962	1657.09375	1595.52783	310.11981	1629.72375	1519.58142	282.33139	1522.13660	1527.26794	234.17178	1247.13269	1507.68933	421.91412	1458.88904	1511.68640	478.74759	1287.46912	1585.03577	231.18179	1348.74841	1338.15491	360.15790	1502.72229	1254.51184	359.58365	1302.13257	1244.12976	363.43683	1159.35718	1237.26624	386.39011	1028.48376	1281.04858	450.59555	909.70715	1241.24609	410.53445	907.42432	1244.58801	433.35233	844.60126	1704.67590	365.41711	1488.57715	1790.23047	335.25058	1298.17883	1803.99768	345.26773	1151.12048	1824.13538	372.97119	1034.91321	1807.08887	422.40283	908.63287	1836.75977	374.06412	905.12531	1842.54370	411.61157	843.39917	1376.75085	459.68137	986.20660	1632.60669	490.48059	984.22021	1481.37891	260.48184	1025.32458	1595.94836	266.52289	1031.19482	1319.88647	420.21121	671.81879	1336.04736	410.35059	487.46249	1359.96631	258.41022	384.27939	1398.27466	122.16582	210.39407	1460.00012	92.87536	204.31404	1355.82458	197.54852	80.53663	1707.25732	450.71613	680.85400	1664.94653	463.68527	470.98373	1673.47485	431.63760	284.45801	1635.73877	417.56259	92.19337	1583.32629	380.42093	39.31512	1643.45874	571.39301	39.40247	1558.61511	318.22446	1796.42395	-3356.78125	2845.82568	1033.81445 
161	1.600	1466.80249	440.47751	1757.68384	1609.19702	445.10742	1734.71509	1455.86145	327.80713	1658.22388	1596.65735	320.16794	1631.18372	1520.76978	292.02249	1523.65466	1529.29358	243.64511	1248.70410	1508.25500	431.78122	1459.95654	1512.43250	488.15048	1288.46094	1587.00061	240.99800	1350.63574	1339.06226	369.20166	1503.51990	1255.89331	366.39227	1302.69641	1245.49829	367.53058	1160.05579	1238.27588	387.55701	1028.49023	1281.15247	448.97281	908.49023	1241.12598	408.71939	907.34961	1244.46619	429.55234	843.66180	1705.53223	376.42181	1490.63831	1791.92175	347.76709	1300.33289	1806.10559	358.51596	1153.31995	1825.97827	387.92502	1037.45190	1808.44714	438.77457	911.87939	1838.39441	390.70282	907.62781	1844.15613	429.37738	846.64270	1377.68433	468.45920	988.26721	1634.20520	499.20667	985.46814	1483.01990	269.53497	1027.05298	1597.48535	275.52576	1032.28589	1320.77844	436.40173	674.21765	1337.17712	428.58841	489.47171	1362.41309	278.59039	383.82883	1401.53223	146.12073	207.33093	1463.28076	117.24670	200.05415	1357.89209	225.01558	80.44986	1707.86169	455.08661	680.84448	1665.72668	465.92358	471.05716	1673.89343	431.78726	284.74112	1635.58264	417.69861	92.29818	1583.19666	380.55591	39.37686	1643.69568	571.56567	39.50539	1558.70825	327.66312	1797.56921			 
162	1.610	1466.82434	449.72412	1758.67285	1609.23792	454.95642	1736.17773	1456.42566	337.31540	1659.06458	1596.95984	330.00714	1632.27112	1522.05261	300.95175	1525.14893	1531.25159	253.04768	1250.23608	1508.78320	441.61227	1460.94360	1513.11230	497.50391	1289.28662	1589.05066	250.90263	1352.50647	1339.84851	378.10010	1504.26904	1256.83289	372.51181	1303.33765	1246.68372	371.33542	1160.84570	1238.77307	388.62076	1029.26599	1281.06665	447.21613	907.32733	1240.97644	406.95544	907.39124	1244.25256	426.11426	842.94568	1705.92810	387.12350	1492.53674	1793.54468	360.20203	1302.49512	1808.35449	371.97427	1155.62024	1827.35864	402.72702	1039.78113	1809.64783	455.29550	915.14972	1839.97278	407.47595	910.11066	1845.61499	447.26904	849.91296	1379.19788	477.25339	990.04761	1635.71570	507.67551	986.75256	1484.14172	278.41467	1028.46423	1598.71765	284.50986	1033.21765	1321.26282	451.43570	676.70886	1338.31116	446.43240	491.47449	1364.26660	298.87808	382.61374	1404.62488	171.15471	203.01575	1466.14856	142.01784	194.75862	1359.71069	253.33476	79.56528	1707.90894	459.06342	680.55444	1666.29834	468.32602	471.11121	1674.45801	432.48737	285.01196	1635.52197	417.96667	92.44091	1583.00928	380.53320	39.64235	1643.77075	571.61615	39.41202	1558.89746	337.18982	1798.50891	-3360.12207	2845.18799	1033.92590 
